<svg width="142px" height="32px" xmlns="http://www.w3.org/2000/svg" id="Ebene_2" viewBox="0 0 355 64">
  <defs><style>.cls-1{fill:#202020;}.cls-2{fill:#fff;}</style></defs>
  <path class="cls-1" d="M355 0v64H107s7-2 7-13V0h241ZM107 52c0 7-6 12-13 12H0V0h107v52Z"></path>
  <path class="cls-2" d="M88 19c1-1 1-2 3-2h3L83 47h-5L67 17h3c2 0 3 1 3 2l7 21h1l7-21ZM21 44l-2 2h-3V18h10c6 0 11 2 11 8s-6 9-12 9h-4v10Zm0-14h4c3 0 6-1 6-4s-3-4-6-4h-4v8Zm33-8v22l-2 2h-3V22h-9v-4h23v2l-1 2h-8Zm80 21h13v3h-17V19h4v25Zm31 4c-9 0-16-6-16-15s7-15 16-15 15 6 15 15-7 15-15 15Zm0-27c-7 0-11 6-11 12s4 12 11 12 11-6 11-12-5-12-11-12Zm43 4c-1-2-4-4-7-4-7 0-12 6-12 12s5 11 12 11 5 0 6-1v-8h-6v-3h11v14l-11 2c-10 0-16-6-16-15s7-15 16-15 8 1 10 4l-3 3Zm16 23h-5V18h5v29Zm22-24c-1-2-3-3-6-3s-5 2-5 5 2 4 6 5c3 1 8 3 8 8s-5 9-10 9-7-1-10-4l4-3c1 2 3 4 6 4s6-2 6-5-3-5-7-6-7-3-7-8 5-8 10-8 6 1 8 3l-3 3Zm20 24h-5V21h-9v-4h23v4h-10v26Zm18 0h-4V18h4v29Zm33-5c-3 3-6 5-11 5-9 0-16-6-16-15s7-15 16-15 8 1 10 4l-3 3c-1-2-4-4-7-4-7 0-11 6-11 12s4 12 11 12 6-2 7-4l4 2Zm19-19c-1-2-3-3-5-3s-6 2-6 5 3 4 6 5c4 1 8 3 8 8s-5 9-10 9-7-1-9-4l3-3c1 2 4 4 6 4s6-2 6-5-3-5-7-6c-3-1-7-3-7-8s5-8 10-8 6 1 8 3l-3 3Z" fill="currentColor"></path>
</svg>